<mxfile host="app.diagrams.net" modified="2021-04-03T01:16:23.892Z" agent="5.0 (X11; Linux x86_64) AppleWebKit/537.36 (KHTML, like Gecko) Chrome/89.0.4389.72 Safari/537.36" etag="4ACD_6Uj_kVp1jvh7aJ0" version="14.5.4" type="github">
  <diagram id="rYC1CQpJiUu3t6tvCSeO" name="Page-1">
    <mxGraphModel dx="1422" dy="774" grid="1" gridSize="10" guides="1" tooltips="1" connect="1" arrows="1" fold="1" page="1" pageScale="1" pageWidth="827" pageHeight="583" math="0" shadow="0">
      <root>
        <mxCell id="0" />
        <mxCell id="1" parent="0" />
        <mxCell id="uzxW4-h2SKwzpZSek_Iy-15" value="main()" style="shape=process;whiteSpace=wrap;html=1;backgroundOutline=1;fontSize=16;align=center;" vertex="1" parent="1">
          <mxGeometry x="10" y="190" width="180" height="30" as="geometry" />
        </mxCell>
        <mxCell id="uzxW4-h2SKwzpZSek_Iy-20" value="server socket" style="edgeStyle=orthogonalEdgeStyle;rounded=0;orthogonalLoop=1;jettySize=auto;html=1;exitX=0.5;exitY=1;exitDx=0;exitDy=0;fontSize=16;" edge="1" parent="1" source="uzxW4-h2SKwzpZSek_Iy-16" target="uzxW4-h2SKwzpZSek_Iy-17">
          <mxGeometry relative="1" as="geometry" />
        </mxCell>
        <mxCell id="uzxW4-h2SKwzpZSek_Iy-16" value="create_socket()" style="rounded=1;whiteSpace=wrap;html=1;fontSize=16;align=center;" vertex="1" parent="1">
          <mxGeometry x="10" y="250" width="180" height="28" as="geometry" />
        </mxCell>
        <mxCell id="uzxW4-h2SKwzpZSek_Iy-21" style="edgeStyle=orthogonalEdgeStyle;rounded=0;orthogonalLoop=1;jettySize=auto;html=1;exitX=0.5;exitY=1;exitDx=0;exitDy=0;fontSize=16;" edge="1" parent="1" source="uzxW4-h2SKwzpZSek_Iy-17" target="uzxW4-h2SKwzpZSek_Iy-19">
          <mxGeometry relative="1" as="geometry" />
        </mxCell>
        <mxCell id="uzxW4-h2SKwzpZSek_Iy-17" value="bind_listen_socket()" style="rounded=1;whiteSpace=wrap;html=1;fontSize=16;align=center;" vertex="1" parent="1">
          <mxGeometry x="10" y="330" width="180" height="28" as="geometry" />
        </mxCell>
        <mxCell id="uzxW4-h2SKwzpZSek_Iy-18" value="create_tasks()" style="rounded=1;whiteSpace=wrap;html=1;fontSize=16;align=center;" vertex="1" parent="1">
          <mxGeometry x="10" y="490" width="180" height="28" as="geometry" />
        </mxCell>
        <mxCell id="uzxW4-h2SKwzpZSek_Iy-22" style="edgeStyle=orthogonalEdgeStyle;rounded=0;orthogonalLoop=1;jettySize=auto;html=1;exitX=0.5;exitY=1;exitDx=0;exitDy=0;entryX=0.5;entryY=0;entryDx=0;entryDy=0;fontSize=16;" edge="1" parent="1" source="uzxW4-h2SKwzpZSek_Iy-19" target="uzxW4-h2SKwzpZSek_Iy-18">
          <mxGeometry relative="1" as="geometry" />
        </mxCell>
        <mxCell id="uzxW4-h2SKwzpZSek_Iy-36" style="edgeStyle=orthogonalEdgeStyle;rounded=0;orthogonalLoop=1;jettySize=auto;html=1;exitX=1;exitY=0.5;exitDx=0;exitDy=0;entryX=0;entryY=0.5;entryDx=0;entryDy=0;fontSize=16;" edge="1" parent="1" source="uzxW4-h2SKwzpZSek_Iy-19" target="uzxW4-h2SKwzpZSek_Iy-32">
          <mxGeometry relative="1" as="geometry" />
        </mxCell>
        <mxCell id="uzxW4-h2SKwzpZSek_Iy-37" style="edgeStyle=orthogonalEdgeStyle;rounded=0;orthogonalLoop=1;jettySize=auto;html=1;exitX=1;exitY=0.5;exitDx=0;exitDy=0;fontSize=16;" edge="1" parent="1" source="uzxW4-h2SKwzpZSek_Iy-19" target="uzxW4-h2SKwzpZSek_Iy-33">
          <mxGeometry relative="1" as="geometry" />
        </mxCell>
        <mxCell id="uzxW4-h2SKwzpZSek_Iy-38" style="edgeStyle=orthogonalEdgeStyle;rounded=0;orthogonalLoop=1;jettySize=auto;html=1;exitX=1;exitY=0.5;exitDx=0;exitDy=0;entryX=0;entryY=0.5;entryDx=0;entryDy=0;fontSize=16;" edge="1" parent="1" source="uzxW4-h2SKwzpZSek_Iy-19" target="uzxW4-h2SKwzpZSek_Iy-34">
          <mxGeometry relative="1" as="geometry" />
        </mxCell>
        <mxCell id="uzxW4-h2SKwzpZSek_Iy-19" value="create_threads()" style="rounded=1;whiteSpace=wrap;html=1;fontSize=16;align=center;" vertex="1" parent="1">
          <mxGeometry x="10" y="390" width="180" height="28" as="geometry" />
        </mxCell>
        <mxCell id="uzxW4-h2SKwzpZSek_Iy-23" value="recv_msg()" style="rounded=1;whiteSpace=wrap;html=1;fontSize=16;align=center;" vertex="1" parent="1">
          <mxGeometry x="40" y="20" width="140" height="30" as="geometry" />
        </mxCell>
        <mxCell id="uzxW4-h2SKwzpZSek_Iy-24" value="msg_format()" style="rounded=1;whiteSpace=wrap;html=1;fontSize=16;align=center;" vertex="1" parent="1">
          <mxGeometry x="40" y="90" width="140" height="30" as="geometry" />
        </mxCell>
        <mxCell id="uzxW4-h2SKwzpZSek_Iy-26" value="&lt;ul&gt;&lt;li&gt;send message to client&lt;/li&gt;&lt;/ul&gt;" style="text;html=1;strokeColor=none;fillColor=none;align=center;verticalAlign=middle;whiteSpace=wrap;rounded=0;fontSize=16;" vertex="1" parent="1">
          <mxGeometry x="40" y="60" width="210" height="20" as="geometry" />
        </mxCell>
        <mxCell id="uzxW4-h2SKwzpZSek_Iy-29" value="&lt;ul&gt;&lt;li&gt;format message before sending&lt;/li&gt;&lt;/ul&gt;" style="text;html=1;strokeColor=none;fillColor=none;align=center;verticalAlign=middle;whiteSpace=wrap;rounded=0;fontSize=16;" vertex="1" parent="1">
          <mxGeometry x="40" y="130" width="270" height="20" as="geometry" />
        </mxCell>
        <mxCell id="uzxW4-h2SKwzpZSek_Iy-42" value="thread target" style="edgeStyle=orthogonalEdgeStyle;rounded=0;orthogonalLoop=1;jettySize=auto;html=1;exitX=1;exitY=0.5;exitDx=0;exitDy=0;entryX=0;entryY=0.5;entryDx=0;entryDy=0;fontSize=16;" edge="1" parent="1" source="uzxW4-h2SKwzpZSek_Iy-32" target="uzxW4-h2SKwzpZSek_Iy-41">
          <mxGeometry relative="1" as="geometry" />
        </mxCell>
        <mxCell id="uzxW4-h2SKwzpZSek_Iy-32" value="Thread 1" style="rounded=1;whiteSpace=wrap;html=1;fontSize=16;align=center;" vertex="1" parent="1">
          <mxGeometry x="230" y="356" width="130" height="28" as="geometry" />
        </mxCell>
        <mxCell id="uzxW4-h2SKwzpZSek_Iy-33" value="Thread 2" style="rounded=1;whiteSpace=wrap;html=1;fontSize=16;align=center;" vertex="1" parent="1">
          <mxGeometry x="230" y="398" width="130" height="28" as="geometry" />
        </mxCell>
        <mxCell id="uzxW4-h2SKwzpZSek_Iy-34" value="Thread ..." style="rounded=1;whiteSpace=wrap;html=1;fontSize=16;align=center;" vertex="1" parent="1">
          <mxGeometry x="230" y="460" width="130" height="28" as="geometry" />
        </mxCell>
        <mxCell id="uzxW4-h2SKwzpZSek_Iy-41" value="scheduler()" style="shape=process;whiteSpace=wrap;html=1;backgroundOutline=1;fontSize=16;align=center;" vertex="1" parent="1">
          <mxGeometry x="490" y="220" width="290" height="30" as="geometry" />
        </mxCell>
        <mxCell id="uzxW4-h2SKwzpZSek_Iy-43" value="accept_client()" style="rounded=1;whiteSpace=wrap;html=1;fontSize=16;align=center;" vertex="1" parent="1">
          <mxGeometry x="530" y="260" width="250" height="28" as="geometry" />
        </mxCell>
        <mxCell id="uzxW4-h2SKwzpZSek_Iy-44" value="receive_all_incoming_messages()" style="rounded=1;whiteSpace=wrap;html=1;fontSize=16;align=center;" vertex="1" parent="1">
          <mxGeometry x="530" y="454" width="250" height="28" as="geometry" />
        </mxCell>
        <mxCell id="uzxW4-h2SKwzpZSek_Iy-45" value="remove_invalid_connections()" style="rounded=1;whiteSpace=wrap;html=1;fontSize=16;align=center;" vertex="1" parent="1">
          <mxGeometry x="530" y="356" width="250" height="28" as="geometry" />
        </mxCell>
        <mxCell id="uzxW4-h2SKwzpZSek_Iy-64" value="" style="edgeStyle=orthogonalEdgeStyle;rounded=0;orthogonalLoop=1;jettySize=auto;html=1;exitX=1;exitY=0.5;exitDx=0;exitDy=0;fontSize=16;" edge="1" parent="1" source="uzxW4-h2SKwzpZSek_Iy-46" target="uzxW4-h2SKwzpZSek_Iy-59">
          <mxGeometry relative="1" as="geometry" />
        </mxCell>
        <mxCell id="uzxW4-h2SKwzpZSek_Iy-66" style="edgeStyle=orthogonalEdgeStyle;rounded=0;orthogonalLoop=1;jettySize=auto;html=1;exitX=1;exitY=0.5;exitDx=0;exitDy=0;entryX=0;entryY=0.5;entryDx=0;entryDy=0;fontSize=16;" edge="1" parent="1" source="uzxW4-h2SKwzpZSek_Iy-46" target="uzxW4-h2SKwzpZSek_Iy-61">
          <mxGeometry relative="1" as="geometry" />
        </mxCell>
        <mxCell id="uzxW4-h2SKwzpZSek_Iy-67" style="edgeStyle=orthogonalEdgeStyle;rounded=0;orthogonalLoop=1;jettySize=auto;html=1;exitX=1;exitY=0.5;exitDx=0;exitDy=0;entryX=0;entryY=0.5;entryDx=0;entryDy=0;fontSize=16;" edge="1" parent="1" source="uzxW4-h2SKwzpZSek_Iy-46" target="uzxW4-h2SKwzpZSek_Iy-62">
          <mxGeometry relative="1" as="geometry" />
        </mxCell>
        <mxCell id="uzxW4-h2SKwzpZSek_Iy-68" style="edgeStyle=orthogonalEdgeStyle;rounded=0;orthogonalLoop=1;jettySize=auto;html=1;exitX=1;exitY=0.5;exitDx=0;exitDy=0;entryX=0;entryY=0.5;entryDx=0;entryDy=0;fontSize=16;" edge="1" parent="1" source="uzxW4-h2SKwzpZSek_Iy-46" target="uzxW4-h2SKwzpZSek_Iy-60">
          <mxGeometry relative="1" as="geometry" />
        </mxCell>
        <mxCell id="uzxW4-h2SKwzpZSek_Iy-46" value="work()" style="rounded=1;whiteSpace=wrap;html=1;fontSize=16;align=center;" vertex="1" parent="1">
          <mxGeometry x="530" y="518" width="250" height="28" as="geometry" />
        </mxCell>
        <mxCell id="uzxW4-h2SKwzpZSek_Iy-47" value="0" style="rounded=1;whiteSpace=wrap;html=1;fontSize=16;align=center;" vertex="1" parent="1">
          <mxGeometry x="490" y="260" width="30" height="28" as="geometry" />
        </mxCell>
        <mxCell id="uzxW4-h2SKwzpZSek_Iy-49" value="1" style="rounded=1;whiteSpace=wrap;html=1;fontSize=16;align=center;" vertex="1" parent="1">
          <mxGeometry x="490" y="354" width="30" height="28" as="geometry" />
        </mxCell>
        <mxCell id="uzxW4-h2SKwzpZSek_Iy-50" value="2" style="rounded=1;whiteSpace=wrap;html=1;fontSize=16;align=center;" vertex="1" parent="1">
          <mxGeometry x="490" y="454" width="30" height="28" as="geometry" />
        </mxCell>
        <mxCell id="uzxW4-h2SKwzpZSek_Iy-51" value="3" style="rounded=1;whiteSpace=wrap;html=1;fontSize=16;align=center;" vertex="1" parent="1">
          <mxGeometry x="490" y="518" width="30" height="28" as="geometry" />
        </mxCell>
        <mxCell id="uzxW4-h2SKwzpZSek_Iy-54" value="&lt;div style=&quot;text-align: left&quot;&gt;&lt;ul&gt;&lt;li&gt;&lt;span&gt;accept client&amp;nbsp;&lt;/span&gt;&lt;/li&gt;&lt;li&gt;&lt;span&gt;store connection information&lt;/span&gt;&lt;/li&gt;&lt;/ul&gt;&lt;/div&gt;" style="text;html=1;strokeColor=none;fillColor=none;align=center;verticalAlign=middle;whiteSpace=wrap;rounded=0;fontSize=16;" vertex="1" parent="1">
          <mxGeometry x="520" y="291.5" width="260" height="60" as="geometry" />
        </mxCell>
        <mxCell id="uzxW4-h2SKwzpZSek_Iy-56" value="&lt;div style=&quot;text-align: left&quot;&gt;&lt;ul&gt;&lt;li&gt;check for invalid connections for every specified interval&lt;/li&gt;&lt;li&gt;remove invalid connections&lt;/li&gt;&lt;/ul&gt;&lt;/div&gt;" style="text;html=1;strokeColor=none;fillColor=none;align=center;verticalAlign=middle;whiteSpace=wrap;rounded=0;fontSize=16;" vertex="1" parent="1">
          <mxGeometry x="520" y="386" width="260" height="68" as="geometry" />
        </mxCell>
        <mxCell id="uzxW4-h2SKwzpZSek_Iy-57" value="&lt;div style=&quot;text-align: left&quot;&gt;&lt;ul&gt;&lt;li&gt;receive all incoming messages&lt;/li&gt;&lt;/ul&gt;&lt;/div&gt;" style="text;html=1;strokeColor=none;fillColor=none;align=center;verticalAlign=middle;whiteSpace=wrap;rounded=0;fontSize=16;" vertex="1" parent="1">
          <mxGeometry x="510" y="482" width="270" height="38" as="geometry" />
        </mxCell>
        <mxCell id="uzxW4-h2SKwzpZSek_Iy-59" value="list_connected_client()" style="rounded=1;whiteSpace=wrap;html=1;fontSize=16;align=center;" vertex="1" parent="1">
          <mxGeometry x="890" y="518" width="250" height="28" as="geometry" />
        </mxCell>
        <mxCell id="uzxW4-h2SKwzpZSek_Iy-60" value="close_all_connection()" style="rounded=1;whiteSpace=wrap;html=1;fontSize=16;align=center;" vertex="1" parent="1">
          <mxGeometry x="890" y="602" width="250" height="28" as="geometry" />
        </mxCell>
        <mxCell id="uzxW4-h2SKwzpZSek_Iy-61" value="select_connection_and_send_message" style="rounded=1;whiteSpace=wrap;html=1;fontSize=16;align=center;" vertex="1" parent="1">
          <mxGeometry x="890" y="682" width="310" height="28" as="geometry" />
        </mxCell>
        <mxCell id="uzxW4-h2SKwzpZSek_Iy-62" value="broadcast()" style="rounded=1;whiteSpace=wrap;html=1;fontSize=16;align=center;" vertex="1" parent="1">
          <mxGeometry x="890" y="750" width="250" height="28" as="geometry" />
        </mxCell>
      </root>
    </mxGraphModel>
  </diagram>
</mxfile>
